<?xml version="1.0" standalone="no"?><!DOCTYPE svg PUBLIC "-//W3C//DTD SVG 1.1//EN" "http://www.w3.org/Graphics/SVG/1.1/DTD/svg11.dtd"><svg t="1767942074911" class="icon" viewBox="0 0 1024 1024" version="1.1" xmlns="http://www.w3.org/2000/svg" p-id="1453" width="256" height="256" xmlns:xlink="http://www.w3.org/1999/xlink"><path d="M874.8 47.4H135c-44.9 0-81.6 36.7-81.6 81.6v739.8c0 44.9 36.7 81.6 81.6 81.6h739.8c44.9 0 81.6-36.7 81.6-81.6V129c0-44.9-36.7-81.6-81.6-81.6z" fill="#f3f5f8" p-id="1454"></path><path d="M504.9 866.5c-49.6 0-97.8-9.7-143.1-28.9-43.8-18.5-83.1-45-116.8-78.8-33.8-33.8-60.3-73.1-78.8-116.8-19.2-45.3-28.9-93.5-28.9-143.1s9.7-97.8 28.9-143.1c18.5-43.8 45-83.1 78.8-116.8 33.8-33.8 73.1-60.3 116.8-78.8 45.3-19.2 93.5-28.9 143.1-28.9s97.8 9.7 143.1 28.9c43.8 18.5 83.1 45 116.8 78.8 33.8 33.8 60.3 73.1 78.8 116.8 19.2 45.3 28.9 93.5 28.9 143.1s-9.7 97.8-28.9 143.1c-18.5 43.8-45 83.1-78.8 116.8-33.8 33.8-73.1 60.3-116.8 78.8-45.3 19.2-93.5 28.9-143.1 28.9z m0-715.2c-191.7 0-347.6 155.9-347.6 347.6s155.9 347.6 347.6 347.6 347.6-155.9 347.6-347.6-155.9-347.6-347.6-347.6z" fill="#004198" p-id="1455"></path><path d="M503.4 467.9c-26.7 0-48.5-21.8-48.5-48.5v-114c0-26.7 21.8-48.5 48.5-48.5s48.5 21.8 48.5 48.5v114c0 26.7-21.7 48.5-48.5 48.5z m0-201c-21.2 0-38.5 17.3-38.5 38.5v114c0 21.2 17.3 38.5 38.5 38.5s38.5-17.3 38.5-38.5v-114c0-21.2-17.3-38.5-38.5-38.5z" fill="#d81e06" p-id="1456"></path><path d="M464 479.3c-4.2 0-8.5-0.6-12.7-1.7-12.5-3.4-23-11.4-29.5-22.5l-57-98.7c-6.5-11.2-8.2-24.2-4.8-36.8 3.4-12.5 11.4-23 22.5-29.5 11.2-6.5 24.2-8.2 36.8-4.8 12.5 3.4 23 11.4 29.5 22.5l57 98.7c13.4 23.2 5.4 52.9-17.8 66.2-7.3 4.4-15.6 6.6-24 6.6z m-57.3-185.7c-6.7 0-13.2 1.7-19.1 5.1-8.9 5.1-15.2 13.4-17.9 23.4-2.7 10-1.3 20.3 3.8 29.2l57 98.7c5.1 8.9 13.4 15.2 23.4 17.9 10 2.7 20.3 1.3 29.2-3.8 18.4-10.6 24.7-34.2 14.1-52.6l-57-98.7c-5.1-8.9-13.4-15.2-23.4-17.9-3.3-0.9-6.7-1.3-10.1-1.3z" fill="#9002a4" p-id="1457"></path><path d="M435.1 508.9c-8.4 0-16.7-2.2-24.1-6.5l-98.7-57c-23.2-13.4-31.1-43.1-17.8-66.2C301 368 311.4 360 324 356.7c12.5-3.4 25.6-1.7 36.8 4.8l98.7 57c23.2 13.4 31.1 43.1 17.8 66.2-6.5 11.2-16.9 19.2-29.5 22.5-4.2 1.2-8.4 1.7-12.7 1.7zM336.7 365c-3.4 0-6.8 0.4-10.1 1.3-10 2.7-18.3 9-23.4 17.9-5.1 8.9-6.5 19.2-3.8 29.2s9 18.3 17.9 23.4l98.7 57c18.4 10.6 42 4.3 52.6-14.1 5.1-8.9 6.5-19.2 3.8-29.2s-9-18.3-17.9-23.4l-98.7-57c-5.8-3.4-12.4-5.1-19.1-5.1z" fill="#1296db" p-id="1458"></path><path d="M425.4 548.9h-114c-26.7 0-48.5-21.8-48.5-48.5s21.8-48.5 48.5-48.5h114c26.7 0 48.5 21.8 48.5 48.5s-21.7 48.5-48.5 48.5z m-114-87c-21.2 0-38.5 17.3-38.5 38.5s17.3 38.5 38.5 38.5h114c21.2 0 38.5-17.3 38.5-38.5s-17.3-38.5-38.5-38.5h-114z" fill="#1afa29" p-id="1459"></path><path d="M338.3 645.4c-4.2 0-8.5-0.6-12.7-1.7-12.5-3.4-23-11.4-29.5-22.5s-8.2-24.2-4.8-36.8c3.4-12.5 11.4-23 22.5-29.5l98.7-57c23.2-13.4 52.9-5.4 66.2 17.8 6.5 11.2 8.2 24.2 4.8 36.8-3.4 12.5-11.4 23-22.5 29.5l-98.7 57c-7.4 4.2-15.7 6.4-24 6.4z m98.4-144c-6.5 0-13.1 1.7-19.2 5.1l-98.7 57C310 568.7 303.6 577 301 587s-1.3 20.3 3.8 29.2 13.4 15.2 23.4 17.9c10 2.7 20.3 1.3 29.2-3.8l98.7-57c8.9-5.1 15.2-13.4 17.9-23.4 2.7-10 1.3-20.3-3.8-29.2-7.2-12.3-20.1-19.3-33.5-19.3z" fill="#f4ea2a" p-id="1460"></path><path d="M409.3 715.7c-8.4 0-16.7-2.2-24.1-6.5-11.2-6.5-19.2-16.9-22.5-29.5-3.4-12.5-1.7-25.6 4.8-36.8l57-98.7C431 533 441.4 525 454 521.7c12.5-3.4 25.6-1.7 36.8 4.8C502 533 510 543.4 513.3 556c3.4 12.5 1.7 25.6-4.8 36.8l-57 98.7c-6.5 11.2-16.9 19.2-29.5 22.5-4.2 1.1-8.5 1.7-12.7 1.7zM466.6 530c-3.4 0-6.8 0.4-10.1 1.3-10 2.7-18.3 9-23.4 17.9l-57 98.7c-5.1 8.9-6.5 19.2-3.8 29.2s9 18.3 17.9 23.4c18.4 10.6 42 4.3 52.6-14.1l57-98.7c5.1-8.9 6.5-19.2 3.8-29.2s-9-18.3-17.9-23.4c-5.9-3.4-12.4-5.1-19.1-5.1z" fill="#fd6e0e" p-id="1461"></path><path d="M506.4 740.9c-26.7 0-48.5-21.8-48.5-48.5v-114c0-26.7 21.8-48.5 48.5-48.5s48.5 21.8 48.5 48.5v114c0 26.7-21.7 48.5-48.5 48.5z m0-201c-21.2 0-38.5 17.3-38.5 38.5v114c0 21.2 17.3 38.5 38.5 38.5s38.5-17.3 38.5-38.5v-114c0-21.2-17.3-38.5-38.5-38.5z" fill="#d81e06" p-id="1462"></path><path d="M603.1 714.2c-4.2 0-8.5-0.6-12.7-1.7-12.5-3.4-23-11.4-29.5-22.5l-57-98.7c-13.4-23.2-5.4-52.9 17.8-66.2 11.2-6.5 24.2-8.2 36.8-4.8 12.5 3.4 23 11.4 29.5 22.5l57 98.7c6.5 11.2 8.2 24.2 4.8 36.8-3.4 12.5-11.4 23-22.5 29.5-7.5 4.2-15.8 6.4-24.2 6.4z m-76.4-180.6c-18.4 10.6-24.7 34.2-14.1 52.6l57 98.7c5.1 8.9 13.4 15.2 23.4 17.9 10 2.7 20.3 1.3 29.2-3.8 8.9-5.1 15.2-13.4 17.9-23.4 2.7-10 1.3-20.3-3.8-29.2l-57-98.7c-5.1-8.9-13.4-15.2-23.4-17.9-10-2.6-20.3-1.3-29.2 3.8z" fill="#9002a4" p-id="1463"></path><path d="M673.1 642.8c-8.4 0-16.7-2.2-24.1-6.5l-98.7-57c-11.2-6.5-19.2-16.9-22.5-29.5-3.4-12.5-1.7-25.6 4.8-36.8 6.5-11.2 16.9-19.2 29.5-22.5 12.5-3.4 25.6-1.7 36.8 4.8l98.7 57c11.2 6.5 19.2 16.9 22.5 29.5 3.4 12.5 1.7 25.6-4.8 36.8s-16.9 19.2-29.5 22.5c-4.2 1.2-8.5 1.7-12.7 1.7z m-98.4-143.9c-3.4 0-6.8 0.4-10.1 1.3-10 2.7-18.3 9-23.4 17.9-5.1 8.9-6.5 19.2-3.8 29.2s9 18.3 17.9 23.4l98.7 57c8.9 5.1 19.2 6.5 29.2 3.8s18.3-9 23.4-17.9 6.5-19.2 3.8-29.2-9-18.3-17.9-23.4l-98.7-57c-5.9-3.4-12.5-5.1-19.1-5.1z" fill="#1296db" p-id="1464"></path><path d="M698.4 545.9h-114c-26.7 0-48.5-21.8-48.5-48.5s21.8-48.5 48.5-48.5h114c26.7 0 48.5 21.8 48.5 48.5s-21.8 48.5-48.5 48.5z m-114-87c-21.2 0-38.5 17.3-38.5 38.5s17.3 38.5 38.5 38.5h114c21.2 0 38.5-17.3 38.5-38.5s-17.3-38.5-38.5-38.5h-114z" fill="#1afa29" p-id="1465"></path><path d="M573.2 506.3c-4.2 0-8.5-0.6-12.7-1.7-12.5-3.4-23-11.4-29.5-22.5s-8.2-24.2-4.8-36.8c3.4-12.5 11.4-23 22.5-29.5l98.7-57c11.2-6.5 24.2-8.2 36.8-4.8 12.5 3.4 23 11.4 29.5 22.5s8.2 24.2 4.8 36.8c-3.4 12.5-11.4 23-22.5 29.5l-98.7 57c-7.5 4.3-15.7 6.5-24.1 6.5z m98.4-143.9c-6.7 0-13.2 1.7-19.1 5.1l-98.7 57c-8.9 5.1-15.2 13.4-17.9 23.4-2.7 10-1.3 20.3 3.8 29.2 10.6 18.4 34.2 24.7 52.6 14.1l98.7-57c18.4-10.6 24.7-34.2 14.1-52.6-5.1-8.9-13.4-15.2-23.4-17.9-3.4-0.9-6.8-1.3-10.1-1.3z" fill="#f4ea2a" p-id="1466"></path><path d="M543.3 477.8c-8.2 0-16.5-2.1-24.2-6.5-23.1-13.4-31.1-43.1-17.7-66.3l57-98.7c13.4-23.2 43.1-31.1 66.2-17.8 23.2 13.4 31.1 43.1 17.8 66.2l-57 98.7c-9 15.7-25.4 24.4-42.1 24.4z m57.1-185.7c-13.3 0-26.3 6.9-33.4 19.2L510 410c-5.1 8.9-6.5 19.2-3.8 29.2s9 18.3 17.9 23.4c18.4 10.6 42 4.3 52.6-14.1l57-98.7c5.1-8.9 6.5-19.2 3.8-29.2s-9-18.3-17.9-23.4c-6-3.5-12.7-5.1-19.2-5.1z" fill="#fd6e0e" p-id="1467"></path></svg>